<?xml version="1.0" encoding="UTF-8"?>
<svg width="33px" height="33px" viewBox="0 0 33 33" version="1.1" xmlns="http://www.w3.org/2000/svg" xmlns:xlink="http://www.w3.org/1999/xlink">
    <!-- Generator: Sketch 55 (78076) - https://sketchapp.com -->
    <title>facebook</title>
    <desc>Created with Sketch.</desc>
    <g id="Welcome" stroke="none" stroke-width="1" fill="none" fill-rule="evenodd">
        <g id="home" transform="translate(-55.000000, -504.000000)" fill="#D2D6DD">
            <g id="main">
                <g id="facebook" transform="translate(55.000000, 504.000000)">
                    <path d="M31.0405574,0 L1.81337705,0 C0.812557377,0 0,0.810934426 0,1.81337705 L0,31.0405574 C0,32.043 0.812557377,32.8550164 1.81337705,32.8550164 L17.5484262,32.8550164 L17.5484262,20.131623 L13.267082,20.131623 L13.267082,15.1724262 L17.5484262,15.1724262 L17.5484262,11.515377 C17.5484262,7.27244262 20.1391967,4.96081967 23.925,4.96081967 C25.74,4.96081967 27.2964098,5.09660656 27.7502951,5.15557377 L27.7502951,9.59055738 L25.1243607,9.59163934 C23.065918,9.59163934 22.6688361,10.5702787 22.6688361,12.0055082 L22.6688361,15.1708033 L27.5798852,15.1708033 L26.9377377,20.129459 L22.6682951,20.129459 L22.6682951,32.8533934 L31.0400164,32.8533934 C32.041918,32.8533934 32.8550164,32.0402951 32.8550164,31.0405574 L32.8550164,1.81229508 C32.8544754,0.810934426 32.042459,0 31.0405574,0 Z" id="Path"></path>
                </g>
            </g>
        </g>
    </g>
</svg>