<?xml version="1.0" encoding="UTF-8"?>
<svg width="22px" height="22px" viewBox="0 0 22 22" version="1.1" xmlns="http://www.w3.org/2000/svg" xmlns:xlink="http://www.w3.org/1999/xlink">
    <!-- Generator: Sketch 55 (78076) - https://sketchapp.com -->
    <title>facebook</title>
    <desc>Created with Sketch.</desc>
    <g id="Welcome" stroke="none" stroke-width="1" fill="none" fill-rule="evenodd">
        <g id="Mobile--menu" transform="translate(-114.000000, -523.000000)" fill="#E3C874">
            <g id="facebook" transform="translate(114.000000, 523.000000)">
                <path d="M20.6937049,0 L1.20891803,0 C0.541704918,0 0,0.540622951 0,1.20891803 L0,20.6937049 C0,21.362 0.541704918,21.9033443 1.20891803,21.9033443 L11.6989508,21.9033443 L11.6989508,13.421082 L8.84472131,13.421082 L8.84472131,10.1149508 L11.6989508,10.1149508 L11.6989508,7.67691803 C11.6989508,4.84829508 13.4261311,3.30721311 15.95,3.30721311 C17.16,3.30721311 18.1976066,3.3977377 18.5001967,3.43704918 L18.5001967,6.39370492 L16.7495738,6.39442623 C15.3772787,6.39442623 15.1125574,7.04685246 15.1125574,8.00367213 L15.1125574,10.1138689 L18.3865902,10.1138689 L17.9584918,13.4196393 L15.1121967,13.4196393 L15.1121967,21.9022623 L20.6933443,21.9022623 C21.3612787,21.9022623 21.9033443,21.3601967 21.9033443,20.6937049 L21.9033443,1.20819672 C21.9029836,0.540622951 21.3616393,0 20.6937049,0 Z" id="Path"></path>
            </g>
        </g>
    </g>
</svg>