<?xml version="1.0" encoding="UTF-8"?>
<svg width="33px" height="33px" viewBox="0 0 33 33" version="1.1" xmlns="http://www.w3.org/2000/svg" xmlns:xlink="http://www.w3.org/1999/xlink">
    <!-- Generator: Sketch 55 (78076) - https://sketchapp.com -->
    <title>instagram</title>
    <desc>Created with Sketch.</desc>
    <g id="Welcome" stroke="none" stroke-width="1" fill="none" fill-rule="evenodd">
        <g id="home" transform="translate(-55.000000, -417.000000)" fill="#D2D6DD">
            <g id="main">
                <g id="instagram" transform="translate(55.000000, 417.000000)">
                    <path d="M22.6875,0 L10.3125,0 C4.6179375,0 0,4.6179375 0,10.3125 L0,22.6875 C0,28.3820625 4.6179375,33 10.3125,33 L22.6875,33 C28.3820625,33 33,28.3820625 33,22.6875 L33,10.3125 C33,4.6179375 28.3820625,0 22.6875,0 Z M29.90625,22.6875 C29.90625,26.668125 26.668125,29.90625 22.6875,29.90625 L10.3125,29.90625 C6.331875,29.90625 3.09375,26.668125 3.09375,22.6875 L3.09375,10.3125 C3.09375,6.331875 6.331875,3.09375 10.3125,3.09375 L22.6875,3.09375 C26.668125,3.09375 29.90625,6.331875 29.90625,10.3125 L29.90625,22.6875 Z" id="Shape" fill-rule="nonzero"></path>
                    <path d="M16.5,8 C11.805875,8 8,11.805875 8,16.5 C8,21.194125 11.805875,25 16.5,25 C21.194125,25 25,21.194125 25,16.5 C25,11.805875 21.194125,8 16.5,8 Z M16.5,21.8125 C13.57175,21.8125 11.1875,19.42825 11.1875,16.5 C11.1875,13.569625 13.57175,11.1875 16.5,11.1875 C19.42825,11.1875 21.8125,13.569625 21.8125,16.5 C21.8125,19.42825 19.42825,21.8125 16.5,21.8125 Z" id="Shape" fill-rule="nonzero"></path>
                    <circle id="Oval" cx="25" cy="8" r="1"></circle>
                </g>
            </g>
        </g>
    </g>
</svg>