<?xml version="1.0" encoding="UTF-8"?>
<svg width="22px" height="22px" viewBox="0 0 22 22" version="1.1" xmlns="http://www.w3.org/2000/svg" xmlns:xlink="http://www.w3.org/1999/xlink">
    <!-- Generator: Sketch 55 (78076) - https://sketchapp.com -->
    <title>instagram</title>
    <desc>Created with Sketch.</desc>
    <g id="Welcome" stroke="none" stroke-width="1" fill="none" fill-rule="evenodd">
        <g id="Mobile--menu" transform="translate(-33.000000, -523.000000)" fill="#E3C874">
            <g id="instagram" transform="translate(33.000000, 523.000000)">
                <path d="M15.125,0 L6.875,0 C3.078625,0 0,3.078625 0,6.875 L0,15.125 C0,18.921375 3.078625,22 6.875,22 L15.125,22 C18.921375,22 22,18.921375 22,15.125 L22,6.875 C22,3.078625 18.921375,0 15.125,0 Z M19.9375,15.125 C19.9375,17.77875 17.77875,19.9375 15.125,19.9375 L6.875,19.9375 C4.22125,19.9375 2.0625,17.77875 2.0625,15.125 L2.0625,6.875 C2.0625,4.22125 4.22125,2.0625 6.875,2.0625 L15.125,2.0625 C17.77875,2.0625 19.9375,4.22125 19.9375,6.875 L19.9375,15.125 Z" id="Shape" fill-rule="nonzero"></path>
                <path d="M11,5.33333333 C7.87058333,5.33333333 5.33333333,7.87058333 5.33333333,11 C5.33333333,14.1294167 7.87058333,16.6666667 11,16.6666667 C14.1294167,16.6666667 16.6666667,14.1294167 16.6666667,11 C16.6666667,7.87058333 14.1294167,5.33333333 11,5.33333333 Z M11,14.5416667 C9.04783333,14.5416667 7.45833333,12.9521667 7.45833333,11 C7.45833333,9.04641667 9.04783333,7.45833333 11,7.45833333 C12.9521667,7.45833333 14.5416667,9.04641667 14.5416667,11 C14.5416667,12.9521667 12.9521667,14.5416667 11,14.5416667 Z" id="Shape" fill-rule="nonzero"></path>
                <circle id="Oval" cx="16.6666667" cy="5.33333333" r="1"></circle>
            </g>
        </g>
    </g>
</svg>